<svg width="21" height="20" viewBox="0 0 21 20" fill="none" xmlns="http://www.w3.org/2000/svg">
<path d="M10.1016 18.3332C10.1016 18.3332 16.3516 13.3332 16.3516 7.9165C16.3516 4.46471 13.5534 1.6665 10.1016 1.6665C6.64977 1.6665 3.85156 4.46471 3.85156 7.9165C3.85156 13.3332 10.1016 18.3332 10.1016 18.3332Z" fill="#303147"/>
<path fill-rule="evenodd" clip-rule="evenodd" d="M3.22656 7.9165C3.22656 4.11953 6.30459 1.0415 10.1016 1.0415C13.8985 1.0415 16.9766 4.11953 16.9766 7.9165C16.9766 10.8463 15.2987 13.5929 13.712 15.5497C12.9091 16.54 12.1077 17.3546 11.5073 17.9217C11.2067 18.2056 10.9554 18.4284 10.7782 18.5812C10.6895 18.6576 10.6193 18.7165 10.5706 18.7569C10.5463 18.7771 10.5273 18.7926 10.514 18.8034L10.4986 18.8159L10.4941 18.8195L10.4928 18.8206L10.4923 18.821C10.4921 18.8211 10.492 18.8212 10.1016 18.3332C9.71113 18.8212 9.71098 18.8211 9.7108 18.821L9.71034 18.8206L9.70898 18.8195L9.70456 18.8159L9.68908 18.8034C9.67585 18.7926 9.65687 18.7771 9.63252 18.7569C9.58382 18.7165 9.51361 18.6576 9.42496 18.5812C9.24773 18.4284 8.99647 18.2056 8.69586 17.9217C8.09542 17.3546 7.29401 16.54 6.49109 15.5497C4.90445 13.5929 3.22656 10.8463 3.22656 7.9165ZM10.1016 18.3332L9.71113 18.8212C9.93939 19.0038 10.2637 19.0038 10.492 18.8212L10.1016 18.3332ZM10.1016 17.5128C10.2505 17.3816 10.4364 17.2137 10.649 17.0129C11.2204 16.4732 11.9815 15.6993 12.7411 14.7625C14.2795 12.8651 15.7266 10.4033 15.7266 7.9165C15.7266 4.80989 13.2082 2.2915 10.1016 2.2915C6.99495 2.2915 4.47656 4.80989 4.47656 7.9165C4.47656 10.4033 5.92367 12.8651 7.46203 14.7625C8.22162 15.6993 8.98271 16.4732 9.55414 17.0129C9.76677 17.2137 9.95258 17.3816 10.1016 17.5128Z" fill="#303147"/>
<path d="M10.1016 10.4165C11.4823 10.4165 12.6016 9.29721 12.6016 7.9165C12.6016 6.5358 11.4823 5.4165 10.1016 5.4165C8.72085 5.4165 7.60156 6.5358 7.60156 7.9165C7.60156 9.29721 8.72085 10.4165 10.1016 10.4165Z" fill="#FFFBFF"/>
<path fill-rule="evenodd" clip-rule="evenodd" d="M6.97656 7.9165C6.97656 6.19062 8.37568 4.7915 10.1016 4.7915C11.8274 4.7915 13.2266 6.19062 13.2266 7.9165C13.2266 9.64239 11.8274 11.0415 10.1016 11.0415C8.37568 11.0415 6.97656 9.64239 6.97656 7.9165ZM10.1016 6.0415C9.06603 6.0415 8.22656 6.88097 8.22656 7.9165C8.22656 8.95203 9.06603 9.7915 10.1016 9.7915C11.1371 9.7915 11.9766 8.95203 11.9766 7.9165C11.9766 6.88097 11.1371 6.0415 10.1016 6.0415Z" fill="#FFFBFF"/>
</svg>
