<svg width="25" height="23" viewBox="0 0 25 23" fill="none" xmlns="http://www.w3.org/2000/svg">
<path fill-rule="evenodd" clip-rule="evenodd" d="M2.06994 12.2069C0.809426 10.9577 0.101562 9.26947 0.101562 7.50923C0.101562 5.73923 0.816875 4.04121 2.09105 2.78965C3.36522 1.53808 5.09393 0.835449 6.8959 0.835449C8.69788 0.835449 10.4266 1.53808 11.7008 2.78965L12.1652 3.24587L12.6297 2.78965C13.9039 1.53808 15.6313 0.835449 17.4333 0.835449C19.2365 0.835449 20.964 1.53808 22.2381 2.78965C23.5123 4.04121 24.2289 5.73923 24.2289 7.50923C24.2289 9.26947 23.521 10.9577 22.2593 12.2069L13.042 21.7937C12.8147 22.0303 12.4968 22.1645 12.1652 22.1645C11.8336 22.1645 11.5157 22.0303 11.2885 21.7937L2.06994 12.2069ZM12.1652 19.2539L20.5082 10.5772L20.533 10.5528C21.3539 9.74522 21.8159 8.65101 21.8159 7.50923C21.8159 6.36746 21.3539 5.27326 20.533 4.46572C19.7109 3.65818 18.5957 3.20439 17.4333 3.20439C16.2721 3.20439 15.1569 3.65818 14.3348 4.46572L13.0184 5.75997C12.5465 6.2223 11.7827 6.2223 11.312 5.75997L9.9944 4.46572C9.17351 3.65818 8.05831 3.20439 6.8959 3.20439C5.7335 3.20439 4.61953 3.65818 3.79741 4.46572C2.97528 5.27326 2.51454 6.36746 2.51454 7.50923C2.51454 8.65101 2.97528 9.74522 3.79741 10.5528C3.8061 10.5613 3.81355 10.5686 3.821 10.5772L12.1652 19.2539Z" fill="#303147"/>
</svg>
