<svg width="20" height="24" viewBox="0 0 20 24" fill="none" xmlns="http://www.w3.org/2000/svg">
<path fill-rule="evenodd" clip-rule="evenodd" d="M8.71928 4.40855V2.05291C8.71928 1.42534 9.22861 0.916016 9.85617 0.916016C10.4826 0.916016 10.9931 1.42534 10.9931 2.05291V4.40855C12.6825 4.65185 14.2616 5.4363 15.4827 6.65732C16.9754 8.15006 17.8144 10.1749 17.8144 12.2849V16.5642L18.7342 18.4037C19.1742 19.2848 19.1275 20.3307 18.6091 21.1686C18.0918 22.0065 17.1766 22.517 16.1921 22.517H10.9931C10.9931 23.1445 10.4826 23.6539 9.85617 23.6539C9.22861 23.6539 8.71928 23.1445 8.71928 22.517H3.52027C2.53459 22.517 1.61941 22.0065 1.10212 21.1686C0.5837 20.3307 0.537077 19.2848 0.978192 18.4037L1.89793 16.5642V12.2849C1.89793 10.1749 2.73584 8.15006 4.22858 6.65732C5.45074 5.4363 7.02872 4.65185 8.71928 4.40855ZM9.85617 6.60047C8.34752 6.60047 6.90255 7.19962 5.83614 8.26603C4.76974 9.33129 4.17171 10.7774 4.17171 12.2849V16.8325C4.17171 17.0087 4.12966 17.1827 4.05122 17.3407C4.05122 17.3407 3.54529 18.3525 3.01095 19.4201C2.92341 19.5963 2.93251 19.8066 3.03596 19.9737C3.13942 20.1409 3.32246 20.2432 3.52027 20.2432H16.1921C16.3888 20.2432 16.5718 20.1409 16.6753 19.9737C16.7787 19.8066 16.7878 19.5963 16.7003 19.4201C16.1659 18.3525 15.66 17.3407 15.66 17.3407C15.5816 17.1827 15.5406 17.0087 15.5406 16.8325V12.2849C15.5406 10.7774 14.9415 9.33129 13.8751 8.26603C12.8087 7.19962 11.3637 6.60047 9.85617 6.60047Z" fill="#303147"/>
</svg>
