<svg width="1191" height="249" viewBox="0 0 1191 249" fill="none" xmlns="http://www.w3.org/2000/svg">
<path d="M116 105.322C116 105.322 217.112 19.9858 295.5 14.3223C387.155 7.70032 512.5 105.322 512.5 105.322C512.5 105.322 648.823 219.112 751.5 215.322C846.619 211.812 969 105.322 969 105.322" stroke="#303147" stroke-width="5" stroke-dasharray="10 10"/>
<ellipse cx="124.5" cy="124.5" rx="124.5" ry="124" fill="#F6F6F6"/>
<path fill-rule="evenodd" clip-rule="evenodd" d="M126.822 63.526C123.597 63.4308 120.369 63.5971 117.176 64.0209C104.407 65.7162 92.172 71.5395 82.5773 81.215C63.388 100.566 59.4578 130.538 73.0267 154.238C86.5956 177.938 114.305 189.52 140.518 182.437C140.995 182.309 141.442 182.087 141.833 181.784C142.225 181.481 142.553 181.104 142.8 180.673C143.047 180.242 143.207 179.767 143.272 179.274C143.337 178.781 143.304 178.279 143.177 177.799C143.05 177.318 142.83 176.868 142.529 176.473C142.229 176.078 141.855 175.747 141.428 175.498C141.001 175.249 140.529 175.087 140.04 175.022C139.551 174.957 139.054 174.989 138.577 175.118C115.608 181.324 90.8896 171.275 78.9998 150.508C67.11 129.741 70.8516 103.212 87.6663 86.256C104.481 69.2998 131.072 65.5653 151.665 77.5552C172.259 89.5451 181.851 114.524 175.696 137.687C175.569 138.167 175.536 138.668 175.601 139.162C175.666 139.655 175.826 140.13 176.073 140.561C176.571 141.431 177.392 142.065 178.355 142.325C179.317 142.584 180.343 142.448 181.205 141.945C181.632 141.696 182.007 141.365 182.307 140.97C182.607 140.575 182.827 140.124 182.954 139.644C189.978 113.21 178.493 85.2671 154.991 71.5839C146.178 66.4527 136.499 63.8118 126.822 63.526ZM124.984 82.3893C114.673 82.3893 106.242 90.9141 106.242 101.312C106.242 111.709 114.673 120.212 124.984 120.212C135.295 120.212 143.756 111.709 143.756 101.312C143.756 90.9141 135.295 82.3893 124.984 82.3893ZM124.984 89.9523C131.243 89.9523 136.256 95.0002 136.256 101.312C136.256 107.623 131.243 112.649 124.984 112.649C118.725 112.649 113.749 107.623 113.749 101.312C113.749 95.0002 118.725 89.9523 124.984 89.9523ZM124.984 124.008C122.395 124.008 119.816 124.337 117.294 125.013C114.771 125.688 112.333 126.705 110.013 128.056C107.694 129.406 105.571 131.05 103.729 132.915C101.888 134.781 100.315 136.851 99.02 139.112C97.7253 141.373 96.7129 143.824 96.0317 146.365C95.3505 148.906 95.0064 151.538 95.0064 154.238C95.0026 155.241 95.3939 156.204 96.0944 156.916C96.7949 157.628 97.7471 158.03 98.7416 158.034H111.866H124.984H138.138H151.255C152.25 158.03 153.202 157.628 153.903 156.916C154.603 156.204 154.995 155.241 154.991 154.238C154.991 151.538 154.647 148.906 153.965 146.365C153.284 143.824 152.272 141.373 150.977 139.112C149.683 136.851 148.087 134.781 146.246 132.915C144.404 131.05 142.31 129.406 139.991 128.056C137.672 126.705 135.234 125.688 132.711 125.013C130.188 124.337 127.573 124.008 124.984 124.008ZM124.984 131.542C126.927 131.542 128.879 131.818 130.77 132.325C132.661 132.831 134.514 133.571 136.256 134.585C137.997 135.599 139.548 136.849 140.929 138.248C142.309 139.646 143.502 141.212 144.473 142.908C145.445 144.605 146.204 146.417 146.715 148.322C146.9 149.014 146.873 149.76 146.993 150.471H138.138H124.984H111.866H103.004C103.124 149.76 103.097 149.014 103.283 148.322C103.793 146.417 104.552 144.605 105.524 142.908C106.495 141.212 107.659 139.646 109.039 138.248C110.42 136.849 112.007 135.599 113.749 134.585C115.49 133.571 117.336 132.831 119.227 132.325C121.119 131.818 123.041 131.542 124.984 131.542ZM169.939 150.412C168.95 150.432 168.008 150.845 167.32 151.562C166.631 152.278 166.251 153.24 166.263 154.238V161.801H158.755C157.76 161.801 156.805 162.2 156.101 162.91C155.397 163.62 155.002 164.582 155.002 165.586C155.002 166.59 155.397 167.553 156.101 168.263C156.805 168.973 157.76 169.372 158.755 169.372H166.263V176.935C166.284 177.923 166.689 178.864 167.39 179.555C168.091 180.246 169.032 180.633 170.013 180.633C170.993 180.633 171.934 180.246 172.635 179.555C173.336 178.864 173.741 177.923 173.762 176.935V169.372H181.233C182.229 169.372 183.183 168.973 183.887 168.263C184.591 167.553 184.987 166.59 184.987 165.586C184.987 164.582 184.591 163.62 183.887 162.91C183.183 162.2 182.229 161.801 181.233 161.801H173.762V154.238C173.768 153.732 173.673 153.229 173.483 152.76C173.293 152.291 173.011 151.866 172.654 151.509C172.297 151.152 171.873 150.871 171.407 150.683C170.941 150.494 170.442 150.402 169.939 150.412Z" fill="#303147"/>
<circle cx="595.5" cy="124.5" r="124.5" fill="#F6F6F6"/>
<path d="M643.529 92.8034L647.241 96.5155C648.409 97.6813 650.964 97.0175 652.949 95.035C654.929 93.0544 655.589 90.5009 654.425 89.3333L639.819 74.7288C638.653 73.563 636.1 74.225 634.121 76.2056C632.137 78.1898 631.473 80.7452 632.639 81.911L636.351 85.6249L633.393 88.5803C625.506 82.4802 616.021 79.0537 606.231 78.1425V74.1559H611.479C613.127 74.1559 614.468 71.8788 614.468 69.0743C614.468 66.2734 613.129 64 611.479 64H590.822C589.174 64 587.836 66.2734 587.836 69.0743C587.836 71.8788 589.173 74.1559 590.822 74.1559H596.073V78.1153C587.972 78.7609 579.973 81.0234 572.817 84.861C569.259 86.767 570.325 91.0793 573.02 92.6816C574.241 93.4054 575.796 93.5764 577.407 92.7125C594.632 83.4787 615.894 85.3702 630.713 98.2069C646.136 111.566 649.167 134.285 640.088 152.014C630.793 170.164 609.515 178.361 590.18 173.899C572.347 169.784 560.084 154.222 557.485 136.782C558.478 138.066 559.471 139.352 560.462 140.636C561.935 143.545 565.009 143.408 566.998 141.822C569.003 140.695 570.123 138.388 568.313 136.046C564.991 129.484 562.908 122.544 561.204 115.414C561.166 115.25 561.126 115.078 561.088 114.905C560.345 111.637 559.54 107.028 555.317 107.028C551.006 107.028 550.015 112.149 548.669 115.285C545.759 122.067 541.973 128.398 537.211 134.04C533.454 138.49 539.243 144.441 543.64 140.469C545.177 139.081 546.714 137.694 548.251 136.306C550.815 158.407 565.894 176.458 587.763 182.668C611.301 189.35 636.089 177.217 647.94 156.603C659.256 136.926 655.144 112.202 640.758 95.5825L643.529 92.8034Z" fill="#303147"/>
<path d="M594.487 128.173C594.1 129.061 593.88 130.039 593.88 131.072C593.88 135.084 597.134 138.338 601.149 138.338C605.163 138.338 608.417 135.084 608.417 131.072C608.417 127.054 605.163 123.801 601.149 123.801C599.829 123.801 598.609 124.179 597.541 124.796C592.616 119.814 587.689 114.831 582.762 109.849C580.698 107.763 577.484 110.979 579.546 113.065C584.528 118.101 589.508 123.137 594.487 128.173Z" fill="#303147"/>
<circle cx="1066.5" cy="124.5" r="124.5" fill="#F6F6F6"/>
<path d="M1079.31 112.344L1065.37 128.628L1057.07 122.472C1055.35 121.186 1052.94 121.62 1051.71 123.42C1050.48 125.236 1050.89 127.744 1052.61 129.03L1063.71 137.261C1064.39 137.759 1065.15 138 1065.94 138C1067 138 1068.04 137.55 1068.8 136.666L1085.02 117.697C1086.44 116.042 1086.3 113.502 1084.73 112.023C1083.15 110.544 1080.72 110.689 1079.31 112.328V112.344Z" fill="#303147"/>
<path d="M1121 78.6063C1121 76.9162 1119.92 75.4295 1118.32 74.8974L1068.24 58.1995C1067.44 57.9335 1066.56 57.9335 1065.76 58.1995L1015.68 74.8817C1014.08 75.4138 1013 76.9162 1013 78.5906V126.133C1013 144.709 1022.23 161.955 1037.7 172.268L1064.82 190.343C1065.48 190.781 1066.23 191 1067 191C1067.77 191 1068.52 190.781 1069.18 190.343L1096.3 172.268C1111.77 161.955 1121 144.709 1121 126.133V78.6063ZM1113.17 126.149C1113.17 142.111 1105.24 156.916 1091.97 165.773L1067 182.409L1042.03 165.773C1028.75 156.916 1020.83 142.096 1020.83 126.149V81.4232L1067 66.0399L1113.17 81.4232V126.149Z" fill="#303147"/>
</svg>
