<svg width="28" height="28" viewBox="0 0 28 28" fill="none" xmlns="http://www.w3.org/2000/svg">
<rect width="28" height="28" rx="8" fill="#303147"/>
<path d="M21.7499 10.3171H17.0999C16.7749 10.3171 16.5166 10.0587 16.5166 9.73372C16.5166 9.40872 16.7749 9.15039 17.0999 9.15039H21.7499C22.0749 9.15039 22.3333 9.40872 22.3333 9.73372C22.3333 10.0587 22.0749 10.3171 21.7499 10.3171Z" fill="white"/>
<path d="M9.35008 10.3171H6.25008C5.92508 10.3171 5.66675 10.0587 5.66675 9.73372C5.66675 9.40872 5.92508 9.15039 6.25008 9.15039H9.35008C9.67508 9.15039 9.93341 9.40872 9.93341 9.73372C9.93341 10.0587 9.66675 10.3171 9.35008 10.3171Z" fill="white"/>
<path d="M12.4501 13.0247C14.2681 13.0247 15.7418 11.551 15.7418 9.73307C15.7418 7.91514 14.2681 6.44141 12.4501 6.44141C10.6322 6.44141 9.15845 7.91514 9.15845 9.73307C9.15845 11.551 10.6322 13.0247 12.4501 13.0247Z" fill="white"/>
<path d="M21.75 18.8424H18.65C18.325 18.8424 18.0667 18.5841 18.0667 18.2591C18.0667 17.9341 18.325 17.6758 18.65 17.6758H21.75C22.075 17.6758 22.3333 17.9341 22.3333 18.2591C22.3333 18.5841 22.075 18.8424 21.75 18.8424Z" fill="white"/>
<path d="M10.9001 18.8424H6.25008C5.92508 18.8424 5.66675 18.5841 5.66675 18.2591C5.66675 17.9341 5.92508 17.6758 6.25008 17.6758H10.9001C11.2251 17.6758 11.4834 17.9341 11.4834 18.2591C11.4834 18.5841 11.2167 18.8424 10.9001 18.8424Z" fill="white"/>
<path d="M15.55 21.5579C17.3679 21.5579 18.8416 20.0842 18.8416 18.2663C18.8416 16.4483 17.3679 14.9746 15.55 14.9746C13.732 14.9746 12.2583 16.4483 12.2583 18.2663C12.2583 20.0842 13.732 21.5579 15.55 21.5579Z" fill="white"/>
</svg>
