<svg width="16" height="17" viewBox="0 0 16 17" fill="none" xmlns="http://www.w3.org/2000/svg">
<path d="M15.1275 12.6471H12.9965C12.1202 12.6471 11.966 11.9804 11.9442 11.6459V9.44182C11.9442 8.51479 11.204 8.4353 10.9896 8.43152H10.5015L8.92346 8.43123C8.04137 8.43123 7.96741 7.63288 7.96301 7.42471V5.29055C7.96301 4.37982 7.34049 4.23454 7.04957 4.2159H6.54914H4.97249C3.98096 4.2159 3.98151 3.24724 3.98151 3.24724V0.885107C3.96392 0.604144 3.82616 0 2.95919 0H0.892005C0.0921314 0 0.00579229 0.616955 0.000292985 0.842307V15.7896C0.000292985 15.7896 -0.0459011 16.8316 1.02179 16.8316H14.8424C15.7071 16.8316 15.8919 16.3162 15.9252 16.0027V13.7788C15.9252 12.8824 15.4341 12.6832 15.1275 12.6471ZM14.9183 15.0023C14.913 15.2032 14.8256 15.7814 13.96 15.7814H1.96217C1.27173 15.7814 1.10208 15.3607 1.06743 15.0669V14.7912V13.8004V12.9167V12.4008V10.3968V9.47094V8.93259V8.26498V5.29288V5.12052V1.96791C1.06743 1.20508 1.51618 1.06941 1.75155 1.0499H2.3188C2.48543 1.05776 3.01996 1.16141 3.01996 2.16968V3.63039C3.02243 3.85924 3.09778 5.1147 4.47453 5.12023H5.91232C6.13752 5.12809 6.86452 5.23145 6.86452 6.25631V7.85736C6.88515 8.30632 7.0867 9.47064 8.6133 9.47064H9.73461C9.73461 9.47064 10.7693 9.46453 10.7693 10.6658V12.0768V12.0963C10.7721 12.2867 10.8501 13.8109 12.6712 13.8001H13.9234C14.125 13.805 14.9169 13.8787 14.9185 14.7528L14.9183 15.0023Z" fill="#878787"/>
</svg>
