<svg width="24" height="21" viewBox="0 0 24 21" fill="none" xmlns="http://www.w3.org/2000/svg">
<path fill-rule="evenodd" clip-rule="evenodd" d="M2.8342 10.9269C1.64679 9.729 0.97998 8.10991 0.97998 6.4218C0.97998 4.72433 1.65381 3.09588 2.85409 1.89561C4.05437 0.695326 5.68282 0.0214844 7.38029 0.0214844C9.07776 0.0214844 10.7062 0.695326 11.9065 1.89561L12.344 2.33313L12.7815 1.89561C13.9818 0.695326 15.6091 0.0214844 17.3066 0.0214844C19.0052 0.0214844 20.6325 0.695326 21.8328 1.89561C23.0331 3.09588 23.7081 4.72433 23.7081 6.4218C23.7081 8.10991 23.0412 9.729 21.8527 10.9269L13.1699 20.1209C12.9559 20.3478 12.6564 20.4765 12.344 20.4765C12.0317 20.4765 11.7322 20.3478 11.5181 20.1209L2.8342 10.9269ZM12.344 17.6852L20.2031 9.364L20.2266 9.34061C20.9998 8.56616 21.435 7.51679 21.435 6.4218C21.435 5.32681 20.9998 4.27745 20.2266 3.503C19.4521 2.72855 18.4016 2.29335 17.3066 2.29335C16.2128 2.29335 15.1622 2.72855 14.3878 3.503L13.1477 4.74422C12.7032 5.18759 11.9837 5.18759 11.5403 4.74422L10.2991 3.503C9.52581 2.72855 8.47528 2.29335 7.38029 2.29335C6.2853 2.29335 5.23594 2.72855 4.46149 3.503C3.68704 4.27745 3.25302 5.32681 3.25302 6.4218C3.25302 7.51679 3.68704 8.56616 4.46149 9.34061C4.46968 9.3488 4.47669 9.35581 4.48371 9.364L12.344 17.6852Z" fill="#303147"/>
</svg>
