<svg width="18" height="18" viewBox="0 0 18 18" fill="none" xmlns="http://www.w3.org/2000/svg">
<path d="M7.45501 16.5697C8.93465 16.5697 10.1341 15.2996 10.1341 13.7329C10.1341 12.1661 8.93465 10.896 7.45501 10.896C5.97537 10.896 4.77588 12.1661 4.77588 13.7329C4.77588 15.2996 5.97537 16.5697 7.45501 16.5697Z" stroke="#878787" stroke-width="1.2" stroke-miterlimit="10" stroke-linecap="round" stroke-linejoin="round"/>
<path d="M4.7757 13.7329H1" stroke="#878787" stroke-width="1.2" stroke-miterlimit="10" stroke-linecap="round" stroke-linejoin="round"/>
<path d="M16.9874 13.7329H10.3457" stroke="#878787" stroke-width="1.2" stroke-miterlimit="10" stroke-linecap="round" stroke-linejoin="round"/>
<path d="M10.5326 6.67372C12.0123 6.67372 13.2118 5.40362 13.2118 3.83686C13.2118 2.27011 12.0123 1 10.5326 1C9.053 1 7.85352 2.27011 7.85352 3.83686C7.85352 5.40362 9.053 6.67372 10.5326 6.67372Z" stroke="#878787" stroke-width="1.2" stroke-miterlimit="10" stroke-linecap="round" stroke-linejoin="round"/>
<path d="M13.2241 3.83691H16.9998" stroke="#878787" stroke-width="1.2" stroke-miterlimit="10" stroke-linecap="round" stroke-linejoin="round"/>
<path d="M1 3.83691H7.64175" stroke="#878787" stroke-width="1.2" stroke-miterlimit="10" stroke-linecap="round" stroke-linejoin="round"/>
</svg>
