<svg width="28" height="28" viewBox="0 0 28 28" fill="none" xmlns="http://www.w3.org/2000/svg">
<path fill-rule="evenodd" clip-rule="evenodd" d="M25.6544 8.6003C25.6544 6.0889 23.6182 4.05273 21.1068 4.05273C17.3221 4.05273 11.2488 4.05273 7.46407 4.05273C4.95268 4.05273 2.9165 6.0889 2.9165 8.6003V23.3799C2.9165 23.8403 3.19391 24.2542 3.61797 24.4304C4.04317 24.6066 4.53203 24.5088 4.85718 24.1837C4.85718 24.1837 7.06729 21.9736 8.40655 20.6355C8.83289 20.2091 9.41045 19.9692 10.0141 19.9692H21.1068C23.6182 19.9692 25.6544 17.933 25.6544 15.4217V8.6003ZM23.3806 8.6003C23.3806 7.34517 22.3631 6.32651 21.1068 6.32651C17.3221 6.32651 11.2488 6.32651 7.46407 6.32651C6.20894 6.32651 5.19029 7.34517 5.19029 8.6003V20.6355L6.79786 19.0279C7.65053 18.1752 8.80789 17.6954 10.0141 17.6954H21.1068C22.3631 17.6954 23.3806 16.6779 23.3806 15.4217V8.6003ZM8.60097 15.4217H17.6961C18.3237 15.4217 18.833 14.9123 18.833 14.2848C18.833 13.6572 18.3237 13.1479 17.6961 13.1479H8.60097C7.9734 13.1479 7.46407 13.6572 7.46407 14.2848C7.46407 14.9123 7.9734 15.4217 8.60097 15.4217ZM8.60097 10.8741H19.9699C20.5975 10.8741 21.1068 10.3648 21.1068 9.73719C21.1068 9.10963 20.5975 8.6003 19.9699 8.6003H8.60097C7.9734 8.6003 7.46407 9.10963 7.46407 9.73719C7.46407 10.3648 7.9734 10.8741 8.60097 10.8741Z" fill="#303147"/>
</svg>
