<svg width="18" height="18" viewBox="0 0 18 18" fill="none" xmlns="http://www.w3.org/2000/svg">
<path fill-rule="evenodd" clip-rule="evenodd" d="M8.29115 4.09299V2.62533C8.29115 2.23433 8.60848 1.91699 8.99948 1.91699C9.38977 1.91699 9.70781 2.23433 9.70781 2.62533V4.09299C10.7604 4.24458 11.7443 4.73333 12.505 5.49407C13.4351 6.42412 13.9578 7.68566 13.9578 9.00032V11.6665L14.5309 12.8126C14.805 13.3615 14.7759 14.0132 14.4529 14.5352C14.1306 15.0573 13.5604 15.3753 12.947 15.3753H9.70781C9.70781 15.7663 9.38977 16.0837 8.99948 16.0837C8.60848 16.0837 8.29115 15.7663 8.29115 15.3753H5.05194C4.43781 15.3753 3.86762 15.0573 3.54533 14.5352C3.22233 14.0132 3.19328 13.3615 3.46811 12.8126L4.04115 11.6665V9.00032C4.04115 7.68566 4.5632 6.42412 5.49324 5.49407C6.2547 4.73333 7.23786 4.24458 8.29115 4.09299ZM8.99948 5.45866C8.05952 5.45866 7.15924 5.83195 6.49483 6.49637C5.83041 7.16008 5.45781 8.06107 5.45781 9.00032V11.8337C5.45781 11.9434 5.43161 12.0518 5.38274 12.1503C5.38274 12.1503 5.06752 12.7807 4.73461 13.4458C4.68007 13.5556 4.68573 13.6867 4.75019 13.7908C4.81465 13.8949 4.92869 13.9587 5.05194 13.9587H12.947C13.0696 13.9587 13.1836 13.8949 13.2481 13.7908C13.3125 13.6867 13.3182 13.5556 13.2637 13.4458C12.9307 12.7807 12.6155 12.1503 12.6155 12.1503C12.5667 12.0518 12.5411 11.9434 12.5411 11.8337V9.00032C12.5411 8.06107 12.1679 7.16008 11.5034 6.49637C10.839 5.83195 9.93873 5.45866 8.99948 5.45866Z" fill="#303147"/>
</svg>
