<svg width="28" height="29" viewBox="0 0 28 29" fill="none" xmlns="http://www.w3.org/2000/svg">
<rect y="0.5" width="28" height="28" rx="8" fill="#303147"/>
<path d="M21.7499 10.8171H17.0999C16.7749 10.8171 16.5166 10.5587 16.5166 10.2337C16.5166 9.90872 16.7749 9.65039 17.0999 9.65039H21.7499C22.0749 9.65039 22.3333 9.90872 22.3333 10.2337C22.3333 10.5587 22.0749 10.8171 21.7499 10.8171Z" fill="white"/>
<path d="M9.35033 10.8171H6.25033C5.92533 10.8171 5.66699 10.5587 5.66699 10.2337C5.66699 9.90872 5.92533 9.65039 6.25033 9.65039H9.35033C9.67533 9.65039 9.93366 9.90872 9.93366 10.2337C9.93366 10.5587 9.66699 10.8171 9.35033 10.8171Z" fill="white"/>
<path d="M12.4499 13.5247C14.2678 13.5247 15.7415 12.051 15.7415 10.2331C15.7415 8.41514 14.2678 6.94141 12.4499 6.94141C10.6319 6.94141 9.1582 8.41514 9.1582 10.2331C9.1582 12.051 10.6319 13.5247 12.4499 13.5247Z" fill="white"/>
<path d="M21.7497 19.3415H18.6497C18.3247 19.3415 18.0664 19.0831 18.0664 18.7581C18.0664 18.4331 18.3247 18.1748 18.6497 18.1748H21.7497C22.0747 18.1748 22.3331 18.4331 22.3331 18.7581C22.3331 19.0831 22.0747 19.3415 21.7497 19.3415Z" fill="white"/>
<path d="M10.9003 19.3415H6.25033C5.92533 19.3415 5.66699 19.0831 5.66699 18.7581C5.66699 18.4331 5.92533 18.1748 6.25033 18.1748H10.9003C11.2253 18.1748 11.4837 18.4331 11.4837 18.7581C11.4837 19.0831 11.217 19.3415 10.9003 19.3415Z" fill="white"/>
<path d="M15.5505 22.0579C17.3684 22.0579 18.8421 20.5842 18.8421 18.7663C18.8421 16.9483 17.3684 15.4746 15.5505 15.4746C13.7325 15.4746 12.2588 16.9483 12.2588 18.7663C12.2588 20.5842 13.7325 22.0579 15.5505 22.0579Z" fill="white"/>
</svg>
