<svg width="18" height="18" viewBox="0 0 18 18" fill="none" xmlns="http://www.w3.org/2000/svg">
<path fill-rule="evenodd" clip-rule="evenodd" d="M2.88134 9.40004C2.14153 8.65368 1.72607 7.64491 1.72607 6.59314C1.72607 5.53554 2.1459 4.52095 2.89372 3.77313C3.64155 3.0253 4.65615 2.60547 5.71374 2.60547C6.77134 2.60547 7.78594 3.0253 8.53376 3.77313L8.80636 4.04573L9.07896 3.77313C9.82679 3.0253 10.8407 2.60547 11.8983 2.60547C12.9566 2.60547 13.9704 3.0253 14.7183 3.77313C15.4661 4.52095 15.8867 5.53554 15.8867 6.59314C15.8867 7.64491 15.4712 8.65368 14.7307 9.40004L9.32095 15.1283C9.18757 15.2697 9.00097 15.3498 8.80636 15.3498C8.61175 15.3498 8.42516 15.2697 8.29178 15.1283L2.88134 9.40004ZM8.80636 13.6108L13.7029 8.42626L13.7175 8.41169C14.1993 7.92917 14.4705 7.27537 14.4705 6.59314C14.4705 5.91091 14.1993 5.25712 13.7175 4.7746C13.235 4.29209 12.5805 4.02094 11.8983 4.02094C11.2168 4.02094 10.5622 4.29209 10.0797 4.7746L9.30711 5.54794C9.03013 5.82418 8.58187 5.82418 8.30562 5.54794L7.53228 4.7746C7.0505 4.29209 6.39597 4.02094 5.71374 4.02094C5.03152 4.02094 4.37772 4.29209 3.89521 4.7746C3.41269 5.25712 3.14227 5.91091 3.14227 6.59314C3.14227 7.27537 3.41269 7.92917 3.89521 8.41169C3.90031 8.41679 3.90468 8.42116 3.90905 8.42626L8.80636 13.6108Z" fill="#303147"/>
</svg>
