<svg width="18" height="18" viewBox="0 0 18 18" fill="none" xmlns="http://www.w3.org/2000/svg">
<path fill-rule="evenodd" clip-rule="evenodd" d="M16.0832 5.45833C16.0832 3.89362 14.8145 2.625 13.2498 2.625C10.8918 2.625 7.10788 2.625 4.74984 2.625C3.18513 2.625 1.9165 3.89362 1.9165 5.45833V14.6667C1.9165 14.9535 2.08934 15.2114 2.35355 15.3212C2.61847 15.431 2.92305 15.37 3.12563 15.1675C3.12563 15.1675 4.50263 13.7905 5.33704 12.9568C5.60267 12.6911 5.96251 12.5417 6.33864 12.5417H13.2498C14.8145 12.5417 16.0832 11.273 16.0832 9.70833V5.45833ZM14.6665 5.45833C14.6665 4.67633 14.0325 4.04166 13.2498 4.04166C10.8918 4.04166 7.10788 4.04166 4.74984 4.04166C3.96784 4.04166 3.33317 4.67633 3.33317 5.45833V12.9568L4.33476 11.9552C4.86601 11.4239 5.5871 11.125 6.33864 11.125H13.2498C14.0325 11.125 14.6665 10.491 14.6665 9.70833V5.45833ZM5.45817 9.70833H11.1248C11.5158 9.70833 11.8332 9.391 11.8332 9C11.8332 8.609 11.5158 8.29166 11.1248 8.29166H5.45817C5.06717 8.29166 4.74984 8.609 4.74984 9C4.74984 9.391 5.06717 9.70833 5.45817 9.70833ZM5.45817 6.875H12.5415C12.9325 6.875 13.2498 6.55766 13.2498 6.16666C13.2498 5.77566 12.9325 5.45833 12.5415 5.45833H5.45817C5.06717 5.45833 4.74984 5.77566 4.74984 6.16666C4.74984 6.55766 5.06717 6.875 5.45817 6.875Z" fill="#303147"/>
</svg>
