<svg width="70" height="25" viewBox="0 0 70 25" fill="none" xmlns="http://www.w3.org/2000/svg">
<rect width="70" height="25" rx="12.5" fill="white"/>
<path d="M6.01963 12.8166C6.27983 16.6781 9.4384 19.8198 13.2186 19.9923C15.8856 20.1123 18.2708 18.8226 19.7019 16.7906C20.2946 15.9583 19.9766 15.4035 18.9864 15.5909C18.5021 15.6809 18.0034 15.7184 17.483 15.6959C13.9486 15.5459 11.0574 12.4792 11.043 8.85764C11.0357 7.88289 11.2309 6.96063 11.5851 6.12085C11.9754 5.19108 11.5056 4.7487 10.6021 5.1461C7.73986 6.39827 5.78111 9.39001 6.01963 12.8166Z" stroke="#44C1F0" stroke-linecap="round" stroke-linejoin="round"/>
<path d="M56.9997 17.375C59.5126 17.375 61.5497 15.1924 61.5497 12.5C61.5497 9.80761 59.5126 7.625 56.9997 7.625C54.4868 7.625 52.4497 9.80761 52.4497 12.5C52.4497 15.1924 54.4868 17.375 56.9997 17.375Z" stroke="#44C1F0" stroke-width="1.5" stroke-linecap="round" stroke-linejoin="round"/>
<path d="M61.907 7.2425L61.998 7.145M52.002 17.855L52.093 17.7575M57 5.06V5M57 20V19.94M50.056 12.5H50M64 12.5H63.944M52.093 7.2425L52.002 7.145M61.998 17.855L61.907 17.7575" stroke="#44C1F0" stroke-width="1.5" stroke-linecap="round" stroke-linejoin="round"/>
</svg>
