<svg width="30" height="31" viewBox="0 0 30 31" fill="none" xmlns="http://www.w3.org/2000/svg">
<g clip-path="url(#clip0_911_5501)">
<path d="M26.8 14.0641L15.3125 25.5516C13.9052 26.9589 11.9965 27.7495 10.0062 27.7495C8.01602 27.7495 6.1073 26.9589 4.7 25.5516C3.29269 24.1443 2.50208 22.2356 2.50208 20.2454C2.50208 18.2551 3.29269 16.3464 4.7 14.9391L16.1875 3.45161C17.1257 2.51341 18.3982 1.98633 19.725 1.98633C21.0518 1.98633 22.3243 2.51341 23.2625 3.45161C24.2007 4.38981 24.7278 5.66229 24.7278 6.98911C24.7278 8.31593 24.2007 9.58841 23.2625 10.5266L11.7625 22.0141C11.2934 22.4832 10.6572 22.7467 9.99375 22.7467C9.33034 22.7467 8.6941 22.4832 8.225 22.0141C7.75589 21.545 7.49236 20.9088 7.49236 20.2454C7.49236 19.5819 7.75589 18.9457 8.225 18.4766L18.8375 7.87661" stroke="#2B3674" stroke-width="2" stroke-linecap="round" stroke-linejoin="round"/>
</g>
<defs>
<clipPath id="clip0_911_5501">
<rect width="30" height="30" fill="white" transform="translate(0 0.251953)"/>
</clipPath>
</defs>
</svg>
