<svg width="25" height="24" viewBox="0 0 25 24" fill="none" xmlns="http://www.w3.org/2000/svg">
<path d="M15.5 9H10.1C9.94087 9 9.78826 9.06321 9.67574 9.17574C9.56321 9.28826 9.5 9.44087 9.5 9.6V16M9.5 21H15.5H9.5ZM9.5 21V16V21ZM9.5 21H4.1C3.94087 21 3.78826 20.9368 3.67574 20.8243C3.56321 20.7117 3.5 20.5591 3.5 20.4V16.6C3.5 16.4409 3.56321 16.2883 3.67574 16.1757C3.78826 16.0632 3.94087 16 4.1 16H9.5V21ZM15.5 21V9V21ZM15.5 21H20.9C21.0591 21 21.2117 20.9368 21.3243 20.8243C21.4368 20.7117 21.5 20.5591 21.5 20.4V3.6C21.5 3.44087 21.4368 3.28826 21.3243 3.17574C21.2117 3.06321 21.0591 3 20.9 3H16.1C15.9409 3 15.7883 3.06321 15.6757 3.17574C15.5632 3.28826 15.5 3.44087 15.5 3.6V9V21Z" stroke="#878787" stroke-width="1.5"/>
</svg>
