<svg width="18" height="19" viewBox="0 0 18 19" fill="none" xmlns="http://www.w3.org/2000/svg">
<path d="M12.5 7.35338C13.3284 7.35338 14 6.64227 14 5.76507C14 4.88787 13.3284 4.17676 12.5 4.17676C11.6716 4.17676 11 4.88787 11 5.76507C11 6.64227 11.6716 7.35338 12.5 7.35338Z" stroke="#878787" stroke-miterlimit="10" stroke-linecap="round"/>
<path d="M17 1.96262C17 1.43087 16.5931 1 16.0909 1C16.0342 1 10.6815 1.00077 10.6815 1.00077C10.1979 1.00077 9.73495 0.973817 9.46659 1.25798L1.20154 10.0094C0.932819 10.2936 0.932819 10.7548 1.20154 11.039L7.51933 17.7289C7.78769 18.013 8.22332 18.013 8.49168 17.7289L16.7564 8.97707C17.0247 8.69329 16.9993 8.21468 16.9993 7.69101C16.9993 7.69101 17 2.02269 17 1.96262Z" stroke="#878787" stroke-miterlimit="10" stroke-linecap="round"/>
</svg>
