<svg width="24" height="21" viewBox="0 0 24 21" fill="none" xmlns="http://www.w3.org/2000/svg">
<path fill-rule="evenodd" clip-rule="evenodd" d="M2.83274 10.9279C1.64533 9.72998 0.978516 8.11088 0.978516 6.42277C0.978516 4.7253 1.65234 3.09686 2.85262 1.89658C4.0529 0.696303 5.68135 0.0224609 7.37882 0.0224609C9.07629 0.0224609 10.7047 0.696303 11.905 1.89658L12.3425 2.33411L12.7801 1.89658C13.9804 0.696303 15.6076 0.0224609 17.3051 0.0224609C19.0037 0.0224609 20.631 0.696303 21.8313 1.89658C23.0316 3.09686 23.7066 4.7253 23.7066 6.42277C23.7066 8.11088 23.0398 9.72998 21.8512 10.9279L13.1685 20.1219C12.9544 20.3488 12.6549 20.4775 12.3425 20.4775C12.0302 20.4775 11.7307 20.3488 11.5166 20.1219L2.83274 10.9279ZM12.3425 17.6862L20.2017 9.36498L20.2251 9.34158C20.9984 8.56713 21.4336 7.51777 21.4336 6.42277C21.4336 5.32778 20.9984 4.27842 20.2251 3.50397C19.4506 2.72952 18.4001 2.29433 17.3051 2.29433C16.2113 2.29433 15.1608 2.72952 14.3863 3.50397L13.1463 4.74519C12.7017 5.18857 11.9822 5.18857 11.5389 4.74519L10.2976 3.50397C9.52435 2.72952 8.47382 2.29433 7.37882 2.29433C6.28383 2.29433 5.23447 2.72952 4.46002 3.50397C3.68557 4.27842 3.25155 5.32778 3.25155 6.42277C3.25155 7.51777 3.68557 8.56713 4.46002 9.34158C4.46821 9.34977 4.47523 9.35679 4.48225 9.36498L12.3425 17.6862Z" fill="white"/>
</svg>
