<svg width="24" height="21" viewBox="0 0 24 21" fill="none" xmlns="http://www.w3.org/2000/svg">
<path fill-rule="evenodd" clip-rule="evenodd" d="M23.6539 4.6003C23.6539 2.0889 21.6177 0.0527344 19.1063 0.0527344C15.3216 0.0527344 9.2483 0.0527344 5.46359 0.0527344C2.95219 0.0527344 0.916016 2.0889 0.916016 4.6003V19.3799C0.916016 19.8403 1.19342 20.2542 1.61748 20.4304C2.04268 20.6066 2.53154 20.5088 2.85669 20.1837C2.85669 20.1837 5.0668 17.9736 6.40606 16.6355C6.8324 16.2091 7.40996 15.9692 8.01365 15.9692H19.1063C21.6177 15.9692 23.6539 13.9331 23.6539 11.4217V4.6003ZM21.3801 4.6003C21.3801 3.34517 20.3626 2.32651 19.1063 2.32651C15.3216 2.32651 9.2483 2.32651 5.46359 2.32651C4.20846 2.32651 3.1898 3.34517 3.1898 4.6003V16.6355L4.79737 15.0279C5.65004 14.1752 6.80741 13.6954 8.01365 13.6954H19.1063C20.3626 13.6954 21.3801 12.6779 21.3801 11.4217V4.6003ZM6.60048 11.4217H15.6956C16.3232 11.4217 16.8325 10.9123 16.8325 10.2848C16.8325 9.6572 16.3232 9.14787 15.6956 9.14787H6.60048C5.97291 9.14787 5.46359 9.6572 5.46359 10.2848C5.46359 10.9123 5.97291 11.4217 6.60048 11.4217ZM6.60048 6.87408H17.9694C18.597 6.87408 19.1063 6.36476 19.1063 5.73719C19.1063 5.10963 18.597 4.6003 17.9694 4.6003H6.60048C5.97291 4.6003 5.46359 5.10963 5.46359 5.73719C5.46359 6.36476 5.97291 6.87408 6.60048 6.87408Z" fill="white"/>
</svg>
