<svg width="28" height="28" viewBox="0 0 28 28" fill="none" xmlns="http://www.w3.org/2000/svg">
<rect width="28" height="28" rx="8" fill="#E62686"/>
<path d="M21.7499 10.3166H17.0999C16.7749 10.3166 16.5166 10.0582 16.5166 9.73324C16.5166 9.40824 16.7749 9.1499 17.0999 9.1499H21.7499C22.0749 9.1499 22.3333 9.40824 22.3333 9.73324C22.3333 10.0582 22.0749 10.3166 21.7499 10.3166Z" fill="white"/>
<path d="M9.34984 10.3166H6.24984C5.92484 10.3166 5.6665 10.0582 5.6665 9.73324C5.6665 9.40824 5.92484 9.1499 6.24984 9.1499H9.34984C9.67484 9.1499 9.93317 9.40824 9.93317 9.73324C9.93317 10.0582 9.6665 10.3166 9.34984 10.3166Z" fill="white"/>
<path d="M12.4499 13.0252C14.2678 13.0252 15.7415 11.5515 15.7415 9.73356C15.7415 7.91562 14.2678 6.44189 12.4499 6.44189C10.6319 6.44189 9.1582 7.91562 9.1582 9.73356C9.1582 11.5515 10.6319 13.0252 12.4499 13.0252Z" fill="white"/>
<path d="M21.7502 18.8415H18.6502C18.3252 18.8415 18.0669 18.5831 18.0669 18.2581C18.0669 17.9331 18.3252 17.6748 18.6502 17.6748H21.7502C22.0752 17.6748 22.3336 17.9331 22.3336 18.2581C22.3336 18.5831 22.0752 18.8415 21.7502 18.8415Z" fill="white"/>
<path d="M10.8998 18.8415H6.24984C5.92484 18.8415 5.6665 18.5831 5.6665 18.2581C5.6665 17.9331 5.92484 17.6748 6.24984 17.6748H10.8998C11.2248 17.6748 11.4832 17.9331 11.4832 18.2581C11.4832 18.5831 11.2165 18.8415 10.8998 18.8415Z" fill="white"/>
<path d="M15.55 21.5584C17.3679 21.5584 18.8416 20.0847 18.8416 18.2668C18.8416 16.4488 17.3679 14.9751 15.55 14.9751C13.732 14.9751 12.2583 16.4488 12.2583 18.2668C12.2583 20.0847 13.732 21.5584 15.55 21.5584Z" fill="white"/>
</svg>
