<svg width="20" height="24" viewBox="0 0 20 24" fill="none" xmlns="http://www.w3.org/2000/svg">
<path fill-rule="evenodd" clip-rule="evenodd" d="M8.71953 4.40855V2.05291C8.71953 1.42534 9.22885 0.916016 9.85642 0.916016C10.4828 0.916016 10.9933 1.42534 10.9933 2.05291V4.40855C12.6827 4.65185 14.2619 5.4363 15.4829 6.65732C16.9756 8.15006 17.8147 10.1749 17.8147 12.2849V16.5642L18.7344 18.4037C19.1744 19.2848 19.1278 20.3307 18.6094 21.1686C18.0921 22.0065 17.1769 22.517 16.1923 22.517H10.9933C10.9933 23.1445 10.4828 23.6539 9.85642 23.6539C9.22885 23.6539 8.71953 23.1445 8.71953 22.517H3.52052C2.53483 22.517 1.61965 22.0065 1.10237 21.1686C0.583944 20.3307 0.537322 19.2848 0.978436 18.4037L1.89817 16.5642V12.2849C1.89817 10.1749 2.73608 8.15006 4.22882 6.65732C5.45098 5.4363 7.02897 4.65185 8.71953 4.40855ZM9.85642 6.60047C8.34776 6.60047 6.90279 7.19962 5.83639 8.26603C4.76998 9.33129 4.17196 10.7774 4.17196 12.2849V16.8325C4.17196 17.0087 4.1299 17.1827 4.05146 17.3407C4.05146 17.3407 3.54553 18.3525 3.01119 19.4201C2.92365 19.5963 2.93275 19.8066 3.03621 19.9737C3.13967 20.1409 3.3227 20.2432 3.52052 20.2432H16.1923C16.389 20.2432 16.5721 20.1409 16.6755 19.9737C16.779 19.8066 16.7881 19.5963 16.7005 19.4201C16.1662 18.3525 15.6603 17.3407 15.6603 17.3407C15.5818 17.1827 15.5409 17.0087 15.5409 16.8325V12.2849C15.5409 10.7774 14.9417 9.33129 13.8753 8.26603C12.8089 7.19962 11.3639 6.60047 9.85642 6.60047Z" fill="white"/>
</svg>
