<svg width="120" height="53" viewBox="0 0 120 53" fill="none" xmlns="http://www.w3.org/2000/svg">
<rect width="120" height="53" rx="26.5" fill="white"/>
<path d="M11.0393 27.1121C11.5597 34.5777 17.8768 40.6517 25.4371 40.9851C30.7713 41.217 35.5416 38.7237 38.4038 34.7952C39.5892 33.1861 38.9532 32.1134 36.9727 32.4758C36.0042 32.6497 35.0068 32.7222 33.966 32.6787C26.8971 32.3888 21.1149 26.4598 21.086 19.4581C21.0715 17.5736 21.4618 15.7906 22.1701 14.167C22.9507 12.3694 22.0111 11.5141 20.2042 12.2825C14.4797 14.7033 10.5622 20.4873 11.0393 27.1121Z" stroke="#E62686" stroke-width="2" stroke-linecap="round" stroke-linejoin="round"/>
<path d="M96.4998 35.5758C102.064 35.5758 106.575 31.065 106.575 25.5008C106.575 19.9365 102.064 15.4258 96.4998 15.4258C90.9355 15.4258 86.4248 19.9365 86.4248 25.5008C86.4248 31.065 90.9355 35.5758 96.4998 35.5758Z" stroke="#E62686" stroke-width="3" stroke-linecap="round" stroke-linejoin="round"/>
<path d="M107.567 36.567L107.365 36.3655M107.365 14.6345L107.567 14.433L107.365 14.6345ZM85.433 36.567L85.6345 36.3655L85.433 36.567ZM96.5 10.124V10V10.124ZM96.5 41V40.876V41ZM81.124 25.5H81H81.124ZM112 25.5H111.876H112ZM85.6345 14.6345L85.433 14.433L85.6345 14.6345Z" stroke="#E62686" stroke-width="4" stroke-linecap="round" stroke-linejoin="round"/>
</svg>
