<svg width="121" height="54" viewBox="0 0 121 54" fill="none" xmlns="http://www.w3.org/2000/svg">
<rect x="0.99585" y="0.0820312" width="120" height="53" rx="26.5" fill="white"/>
<path d="M12.0351 27.1942C12.5555 34.6598 18.8726 40.7337 26.433 41.0671C31.7671 41.2991 36.5375 38.8057 39.3997 34.8772C40.5851 33.2681 39.949 32.1954 37.9686 32.5578C37.0001 32.7318 36.0026 32.8042 34.9618 32.7608C27.893 32.4708 22.1107 26.5418 22.0818 19.5401C22.0673 17.6556 22.4576 15.8726 23.166 14.249C23.9466 12.4515 23.007 11.5962 21.2 12.3645C15.4756 14.7854 11.5581 20.5694 12.0351 27.1942Z" stroke="#44C1F0" stroke-width="2" stroke-linecap="round" stroke-linejoin="round"/>
<path d="M98.4959 36.6578C104.06 36.6578 108.571 32.1471 108.571 26.5828C108.571 21.0185 104.06 16.5078 98.4959 16.5078C92.9316 16.5078 88.4209 21.0185 88.4209 26.5828C88.4209 32.1471 92.9316 36.6578 98.4959 36.6578Z" stroke="#44C1F0" stroke-width="3" stroke-linecap="round" stroke-linejoin="round"/>
<path d="M109.563 37.649L109.361 37.4475M109.361 15.7165L109.563 15.515L109.361 15.7165ZM87.4288 37.649L87.6303 37.4475L87.4288 37.649ZM98.4958 11.206V11.082V11.206ZM98.4958 42.082V41.958V42.082ZM83.1198 26.582H82.9958H83.1198ZM113.996 26.582H113.872H113.996ZM87.6303 15.7165L87.4288 15.515L87.6303 15.7165Z" stroke="#44C1F0" stroke-width="4" stroke-linecap="round" stroke-linejoin="round"/>
</svg>
