<svg width="24" height="24" viewBox="0 0 24 24" fill="none" xmlns="http://www.w3.org/2000/svg">
<path fill-rule="evenodd" clip-rule="evenodd" d="M1.25 2.5C1.25 2.08579 1.58579 1.75 2 1.75H22C22.4142 1.75 22.75 2.08579 22.75 2.5V8.5C22.75 8.91421 22.4142 9.25 22 9.25H2C1.58579 9.25 1.25 8.91421 1.25 8.5V2.5ZM2.75 3.25V7.75H21.25V3.25H2.75Z" fill="black"/>
<path fill-rule="evenodd" clip-rule="evenodd" d="M14.8692 12.9692C15.1595 12.6794 15.6289 12.6766 15.9226 12.963L18.1629 15.147C18.4595 15.4361 18.4655 15.911 18.1764 16.2075C17.8872 16.5041 17.4124 16.5102 17.1158 16.221L15.4054 14.5535L11.9073 18.0458C11.6189 18.3338 11.1531 18.3387 10.8587 18.0567L8.10186 15.4166L2.53304 21.0427C2.24164 21.337 1.76678 21.3395 1.47239 21.0481C1.178 20.7567 1.17557 20.2818 1.46696 19.9874L7.55476 13.837C7.84276 13.5461 8.31087 13.5398 8.60654 13.823L11.3665 16.4662L14.8692 12.9692Z" fill="black"/>
<path fill-rule="evenodd" clip-rule="evenodd" d="M22 7.33594C22.4142 7.33594 22.75 7.67172 22.75 8.08594V21.0859C22.75 21.5002 22.4142 21.8359 22 21.8359C21.5858 21.8359 21.25 21.5002 21.25 21.0859V8.08594C21.25 7.67172 21.5858 7.33594 22 7.33594Z" fill="black"/>
<path fill-rule="evenodd" clip-rule="evenodd" d="M2 7.33594C2.41421 7.33594 2.75 7.67172 2.75 8.08594V15.0859C2.75 15.5002 2.41421 15.8359 2 15.8359C1.58579 15.8359 1.25 15.5002 1.25 15.0859V8.08594C1.25 7.67172 1.58579 7.33594 2 7.33594Z" fill="black"/>
<path fill-rule="evenodd" clip-rule="evenodd" d="M5.75781 21.5C5.75781 21.0858 6.0936 20.75 6.50781 20.75H22.0001C22.4143 20.75 22.7501 21.0858 22.7501 21.5C22.7501 21.9142 22.4143 22.25 22.0001 22.25H6.50781C6.0936 22.25 5.75781 21.9142 5.75781 21.5Z" fill="black"/>
<path fill-rule="evenodd" clip-rule="evenodd" d="M7.75 5.5C7.75 5.08579 8.08579 4.75 8.5 4.75H19C19.4142 4.75 19.75 5.08579 19.75 5.5C19.75 5.91421 19.4142 6.25 19 6.25H8.5C8.08579 6.25 7.75 5.91421 7.75 5.5Z" fill="black"/>
<path fill-rule="evenodd" clip-rule="evenodd" d="M4.25 5.49805C4.25 5.08383 4.58579 4.74805 5 4.74805H5.5C5.91421 4.74805 6.25 5.08383 6.25 5.49805C6.25 5.91226 5.91421 6.24805 5.5 6.24805H5C4.58579 6.24805 4.25 5.91226 4.25 5.49805Z" fill="black"/>
</svg>
