<svg width="24" height="24" viewBox="0 0 24 24" fill="none" xmlns="http://www.w3.org/2000/svg">
<path fill-rule="evenodd" clip-rule="evenodd" d="M10.25 3C10.25 2.58579 10.5858 2.25 11 2.25H16C16.4142 2.25 16.75 2.58579 16.75 3V21C16.75 21.4142 16.4142 21.75 16 21.75H11C10.5858 21.75 10.25 21.4142 10.25 21V3ZM11.75 3.75V20.25H15.25V3.75H11.75Z" fill="#303147"/>
<path fill-rule="evenodd" clip-rule="evenodd" d="M15.25 3C15.25 2.58579 15.5858 2.25 16 2.25H21C21.4142 2.25 21.75 2.58579 21.75 3V21C21.75 21.4142 21.4142 21.75 21 21.75H16C15.5858 21.75 15.25 21.4142 15.25 21V3ZM16.75 3.75V20.25H20.25V3.75H16.75Z" fill="#303147"/>
<path fill-rule="evenodd" clip-rule="evenodd" d="M4.53649 2.41043C4.69394 2.28663 4.89436 2.23095 5.09309 2.25579L9.09309 2.75579C9.49695 2.80628 9.78684 3.16965 9.74635 3.57463L7.99635 21.0746C7.97633 21.2748 7.87673 21.4586 7.71992 21.5846C7.56311 21.7106 7.36224 21.7684 7.16244 21.7449L2.91244 21.2449C2.50203 21.1966 2.208 20.8254 2.25492 20.4148L4.25492 2.91484C4.27766 2.71585 4.37905 2.53423 4.53649 2.41043ZM5.65915 3.83823L3.8301 19.8425L6.57973 20.166L8.18098 4.15345L5.65915 3.83823Z" fill="#303147"/>
<path fill-rule="evenodd" clip-rule="evenodd" d="M18.5 6.75C18.9142 6.75 19.25 7.08579 19.25 7.5V9C19.25 9.41421 18.9142 9.75 18.5 9.75C18.0858 9.75 17.75 9.41421 17.75 9V7.5C17.75 7.08579 18.0858 6.75 18.5 6.75Z" fill="#303147"/>
<path fill-rule="evenodd" clip-rule="evenodd" d="M13.5 6.75C13.9142 6.75 14.25 7.08579 14.25 7.5V9C14.25 9.41421 13.9142 9.75 13.5 9.75C13.0858 9.75 12.75 9.41421 12.75 9V7.5C12.75 7.08579 13.0858 6.75 13.5 6.75Z" fill="#303147"/>
</svg>
